<?xml version="1.0" standalone="no"?>
<!DOCTYPE svg PUBLIC "-//W3C//DTD SVG 20010904//EN"
 "http://www.w3.org/TR/2001/REC-SVG-20010904/DTD/svg10.dtd">
<svg version="1.0" xmlns="http://www.w3.org/2000/svg"
 width="1188.000000pt" height="1013.000000pt" viewBox="0 0 1188.000000 1013.000000"
 preserveAspectRatio="xMidYMid meet">

<g transform="translate(0.000000,1013.000000) scale(0.100000,-0.100000)"
fill="#000000" stroke="none">
<path d="M5544 10119 c-120 -9 -251 -31 -389 -64 -131 -31 -3512 -1095 -3630
-1142 -213 -84 -442 -222 -640 -383 -407 -331 -690 -769 -806 -1245 -67 -276
-62 -125 -66 -2130 -4 -1926 -4 -1938 42 -2171 164 -819 688 -1472 1421 -1769
143 -57 3543 -1124 3671 -1151 355 -75 770 -76 1128 -3 345 71 712 249 986
477 190 160 289 277 717 847 222 297 410 545 416 552 8 9 73 -8 281 -76 149
-49 304 -94 345 -102 105 -19 326 -16 425 6 191 41 346 124 480 259 78 78 215
265 933 1269 463 647 855 1201 871 1230 44 76 90 197 117 305 62 244 34 489
-82 712 -67 129 -1713 2423 -1806 2518 -268 271 -612 382 -948 306 -36 -8
-188 -55 -338 -105 -150 -50 -275 -89 -276 -88 -2 2 -172 230 -379 506 -407
542 -474 624 -636 771 -378 342 -811 563 -1256 642 -201 36 -381 45 -581 29z
m286 -1049 c318 -34 610 -175 874 -421 57 -53 157 -178 359 -447 154 -205 277
-375 274 -378 -3 -3 -250 -87 -549 -186 -299 -98 -577 -195 -618 -214 -240
-112 -449 -322 -541 -542 -17 -41 -40 -111 -52 -156 l-22 -81 0 -1570 0 -1570
26 -96 c58 -209 140 -359 267 -491 94 -97 181 -161 294 -212 40 -19 328 -118
641 -221 401 -132 565 -190 560 -198 -4 -7 -135 -183 -291 -392 -181 -241
-315 -409 -366 -461 -182 -180 -403 -297 -676 -355 -148 -32 -458 -33 -600 -2
-76 16 -3151 977 -3458 1080 -256 86 -470 238 -622 444 -105 142 -196 348
-247 559 -16 70 -18 187 -21 1875 -3 1983 -5 1897 58 2088 111 331 344 590
688 766 108 55 254 102 1822 596 938 295 1743 545 1789 556 78 19 196 35 281
37 19 1 78 -3 130 -8z m2998 -3151 c125 -13 259 -44 300 -69 28 -17 32 -25 32
-62 -1 -59 -54 -268 -71 -279 -21 -13 -35 -11 -144 17 -122 31 -323 44 -403
24 -70 -16 -102 -54 -102 -120 0 -108 22 -122 265 -170 332 -66 419 -114 478
-262 29 -74 37 -348 13 -452 -31 -133 -101 -221 -220 -277 -105 -49 -189 -63
-391 -63 -191 0 -316 16 -452 56 -91 26 -113 46 -113 100 0 67 31 241 47 266
18 29 29 28 193 -16 259 -69 468 -60 512 21 19 36 16 148 -5 181 -25 38 -68
54 -242 87 -244 47 -319 75 -399 149 -79 73 -116 189 -116 365 0 369 168 508
618 514 56 0 146 -4 200 -10z m-1499 -34 c296 -66 446 -224 490 -515 29 -188
21 -536 -15 -680 -63 -251 -240 -395 -544 -445 -108 -17 -655 -21 -725 -5 -81
18 -75 -43 -75 820 0 754 0 768 20 793 11 14 35 29 53 33 122 28 672 27 796
-1z m2922 15 c89 -17 99 -33 183 -289 155 -471 396 -1275 396 -1322 0 -19 -5
-40 -12 -47 -8 -8 -67 -12 -199 -12 -165 0 -189 2 -209 18 -16 13 -33 55 -59
148 l-37 129 -241 3 c-224 2 -242 1 -247 -15 -3 -10 -17 -61 -31 -113 -33
-123 -44 -149 -66 -160 -10 -6 -101 -10 -203 -10 -181 0 -186 1 -200 23 -19
29 -21 24 115 479 193 652 316 1043 345 1100 18 35 55 59 102 69 57 11 303 10
363 -1z"/>
<path d="M6918 5539 c-17 -9 -18 -43 -18 -473 0 -414 2 -465 16 -470 32 -12
221 -6 272 9 90 27 147 94 179 210 20 72 28 321 14 433 -29 234 -106 302 -340
302 -58 0 -114 -5 -123 -11z"/>
<path d="M10046 5398 c-24 -83 -136 -511 -136 -520 0 -4 74 -8 163 -8 l164 0
-76 287 c-42 157 -81 288 -88 290 -6 2 -18 -18 -27 -49z"/>
</g>
</svg>
